<?xml version="1.0" encoding="UTF-8" standalone="no"?>
<!-- Created with Inkscape (http://www.inkscape.org/) -->

<svg
   xmlns:dc="http://purl.org/dc/elements/1.1/"
   xmlns:cc="http://creativecommons.org/ns#"
   xmlns:rdf="http://www.w3.org/1999/02/22-rdf-syntax-ns#"
   xmlns:svg="http://www.w3.org/2000/svg"
   xmlns="http://www.w3.org/2000/svg"
   xmlns:sodipodi="http://sodipodi.sourceforge.net/DTD/sodipodi-0.dtd"
   xmlns:inkscape="http://www.inkscape.org/namespaces/inkscape"
   width="210mm"
   height="297mm"
   viewBox="0 0 744.09448819 1052.3622047"
   id="svg2"
   version="1.1"
   inkscape:version="0.91 r"
   sodipodi:docname="logo.svg">
  <defs
     id="defs4" />
  <sodipodi:namedview
     id="base"
     pagecolor="#ffffff"
     bordercolor="#666666"
     borderopacity="1.0"
     inkscape:pageopacity="0.0"
     inkscape:pageshadow="2"
     inkscape:zoom="3.959798"
     inkscape:cx="379.43793"
     inkscape:cy="869.29664"
     inkscape:document-units="px"
     inkscape:current-layer="layer1"
     showgrid="true"
     showguides="false"
     inkscape:window-width="1366"
     inkscape:window-height="716"
     inkscape:window-x="0"
     inkscape:window-y="0"
     inkscape:window-maximized="1">
    <inkscape:grid
       type="xygrid"
       id="grid4178" />
  </sodipodi:namedview>
  <metadata
     id="metadata7">
    <rdf:RDF>
      <cc:Work
         rdf:about="">
        <dc:format>image/svg+xml</dc:format>
        <dc:type
           rdf:resource="http://purl.org/dc/dcmitype/StillImage" />
        <dc:title></dc:title>
      </cc:Work>
    </rdf:RDF>
  </metadata>
  <g
     inkscape:label="Layer 1"
     inkscape:groupmode="layer"
     id="layer1">
    <path
       sodipodi:type="spiral"
       style="fill:none;fill-rule:evenodd;stroke:#000000;stroke-width:1px;stroke-linecap:butt;stroke-linejoin:miter;stroke-opacity:1"
       id="path4136"
       sodipodi:cx="382.85715"
       sodipodi:cy="452.36221"
       sodipodi:expansion="1"
       sodipodi:revolution="3"
       sodipodi:radius="100.04081"
       sodipodi:argument="-21.962585"
       sodipodi:t0="0"
       d="m 382.85715,452.36221 c -5.01384,-0.14325 -2.28056,-6.82923 0.23809,-8.33333 6.82537,-4.07602 14.55788,2.29433 16.42857,8.80951 3.34623,11.65415 -6.30161,22.50153 -17.38094,24.52382 -16.25935,2.96781 -30.58825,-10.3299 -32.61906,-25.95236 -2.70675,-20.82229 14.36126,-38.73041 34.52379,-40.7143 25.37248,-2.49653 46.90012,18.39302 48.80955,43.09521 2.31258,29.91766 -22.4248,55.08556 -51.66664,56.90479 -34.4605,2.14389 -63.28086,-26.45654 -65.00003,-60.23806 -1.98485,-39.00211 30.48827,-71.48274 68.80948,-73.09528 43.54301,-1.83227 79.68922,34.51999 81.19052,77.38091 1.68424,48.08347 -38.55172,87.89905 -85.95233,89.28576 -52.62366,1.53952 -96.11139,-42.58347 -97.38101,-94.52376" />
    <path
       style="fill:none;fill-rule:evenodd;stroke:#000000;stroke-width:1.65946233px;stroke-linecap:butt;stroke-linejoin:miter;stroke-opacity:1"
       d="m 394.27762,925.2976 c 36.94444,181.9369 171.01647,-3.51828 171.01647,-3.51828 l -299.5879,-363.25916 28.99878,306.32893 28.41881,47.4618"
       id="path4138"
       inkscape:connector-curvature="0"
       sodipodi:nodetypes="ccccc" />
    <a
       id="a4165">
      <g
         id="text4140"
         style="font-style:normal;font-variant:normal;font-weight:normal;font-stretch:normal;font-size:90px;line-height:125%;font-family:'Noto Sans';-inkscape-font-specification:'Noto Sans';letter-spacing:0px;word-spacing:0px;fill:#000000;fill-opacity:1;stroke:none;stroke-width:1px;stroke-linecap:butt;stroke-linejoin:miter;stroke-opacity:1">
        <path
           id="path4145"
           style=""
           d="m 167.02079,172.72493 q 0,9.84375 -6.72363,15.11719 -6.72364,5.22949 -18.94043,5.22949 l -7.38281,0 0,25.00488 -8.08594,0 0,-64.24804 17.00683,0 q 24.12598,0 24.12598,18.89648 z m -33.04687,13.40332 6.45996,0 q 9.58007,0 13.88671,-3.07617 4.30665,-3.12012 4.30665,-9.97559 0,-6.19629 -3.99903,-9.27246 -3.99902,-3.07617 -12.48047,-3.07617 l -8.17382,0 0,25.40039 z" />
        <path
           id="path4147"
           style=""
           d="m 221.20536,193.86263 q 0,11.82128 -5.97656,18.45703 -5.97656,6.63574 -16.52344,6.63574 -6.54785,0 -11.60156,-3.03223 -5.05371,-3.07617 -7.77832,-8.78906 -2.72461,-5.71289 -2.72461,-13.27148 0,-11.77735 5.88867,-18.3252 5.88867,-6.5918 16.52344,-6.5918 10.19531,0 16.17187,6.72364 6.02051,6.67968 6.02051,18.19336 z m -36.43066,0 q 0,9.09667 3.55957,13.84277 3.60351,4.70215 10.59082,4.70215 6.89941,0 10.50293,-4.70215 3.60351,-4.7461 3.60351,-13.84277 0,-9.09668 -3.64746,-13.667 -3.60351,-4.61425 -10.59082,-4.61425 -14.01855,0 -14.01855,18.28125 z" />
        <path
           id="path4149"
           style=""
           d="m 256.27372,168.94563 q 3.20801,0 5.66895,0.52735 l -0.9668,7.29492 q -2.68067,-0.61524 -5.22949,-0.61524 -3.82325,0 -7.11914,2.10938 -3.25196,2.10937 -5.09766,5.84473 -1.8457,3.6914 -1.8457,8.21777 l 0,25.75195 -7.91016,0 0,-48.25195 6.50391,0 0.8789,8.83301 0.35156,0 q 2.76856,-4.79004 6.54786,-7.25098 3.77929,-2.46094 8.21777,-2.46094 z" />
        <path
           id="path4151"
           style=""
           d="m 287.16727,212.49544 q 1.53809,0 3.60352,-0.30762 2.06543,-0.30762 3.12012,-0.70312 l 0,6.06445 q -1.09864,0.4834 -3.42774,0.92285 -2.28515,0.4834 -4.6582,0.4834 -14.15039,0 -14.15039,-14.89746 l 0,-28.08106 -6.81152,0 0,-3.77929 6.89941,-3.16407 3.16406,-10.2832 4.70215,0 0,11.07422 13.93066,0 0,6.15234 -13.93066,0 0,27.86133 q 0,4.17481 1.97754,6.41602 2.02148,2.24121 5.58105,2.24121 z" />
        <path
           id="path4153"
           style=""
           d="m 322.89481,218.9554 q -10.41504,0 -16.21582,-6.37207 -5.80078,-6.41602 -5.80078,-18.36914 0,-12.12891 5.84473,-18.67676 5.88867,-6.5918 16.74316,-6.5918 3.51563,0 6.94336,0.74707 3.47168,0.70313 5.71289,1.84571 l -2.41699,6.59179 q -6.1084,-2.28515 -10.41504,-2.28515 -7.29492,0 -10.7666,4.61425 -3.47168,4.57032 -3.47168,13.667 0,8.74511 3.47168,13.40332 3.47168,4.61426 10.2832,4.61426 6.37207,0 12.52442,-2.8125 l 0,7.03125 q -5.00977,2.59277 -12.43653,2.59277 z" />
        <path
           id="path4155"
           style=""
           d="m 354.27177,169.82454 0,31.06934 q 0,5.84472 2.59277,8.70117 2.63672,2.8125 8.12988,2.8125 7.42676,0 10.81055,-4.13086 3.38379,-4.13086 3.38379,-13.31543 l 0,-25.13672 7.9541,0 0,48.25195 -6.50391,0 -1.14257,-6.37207 -0.39551,0 q -2.15332,3.47168 -6.1084,5.36133 -3.95508,1.88965 -9.18457,1.88965 -8.70117,0 -13.13965,-4.17481 -4.39453,-4.1748 -4.39453,-13.35937 l 0,-31.59668 7.99805,0 z" />
        <path
           id="path4157"
           d="m 410.68642,237.01685 -3.82881,6.37659 -4.08135,-6.37659 0.0446,-86.63783 3.95508,0 3.95508,0 -0.0446,35.35366 c 0,0 0,11.39648 0,17.09472 0,5.69824 0,17.09472 0,17.09472 z"
           inkscape:connector-curvature="0"
           sodipodi:nodetypes="cccccccacc" />
        <path
           id="path4159"
           d="m 433.88954,237.01685 -3.89195,6.25032 -4.01821,-6.25032 0,-17.09473 c 0,0 0,-11.39648 0,-17.09472 0,-5.69824 0,-17.09472 0,-17.09472 l -0.12627,-35.27748 3.95508,0 3.95508,0 z"
           inkscape:connector-curvature="0"
           sodipodi:nodetypes="ccccaccccc" />
        <path
           id="path4161"
           style=""
           d="m 456.84013,218.07649 -7.91016,0 0,-48.25195 7.91016,0 0,48.25195 z m -8.52539,-61.30371 q 0,-2.63672 1.31835,-3.82324 1.36231,-1.18652 3.33985,-1.18652 1.8457,0 3.20801,1.18652 1.40625,1.18652 1.40625,3.82324 0,2.59277 -1.40625,3.82324 -1.36231,1.23047 -3.20801,1.23047 -1.97754,0 -3.33985,-1.23047 -1.31835,-1.23047 -1.31835,-3.82324 z" />
        <path
           id="path4163"
           style=""
           d="m 503.55399,204.76106 q 0,6.76758 -5.05371,10.50293 -5.05371,3.69141 -14.19433,3.69141 -9.53614,0 -15.16114,-3.03223 l 0,-7.20703 q 7.95411,3.86719 15.33692,3.86719 5.97656,0 8.70117,-1.9336 2.72461,-1.93359 2.72461,-5.18554 0,-2.85645 -2.63672,-4.83399 -2.59277,-1.97754 -9.27246,-4.52636 -6.81152,-2.63672 -9.58008,-4.48243 -2.76855,-1.88964 -4.08691,-4.21875 -1.27442,-2.3291 -1.27442,-5.66894 0,-5.93262 4.83399,-9.36035 4.83398,-3.42774 13.27148,-3.42774 8.21778,0 15.38086,3.25196 l -2.68066,6.28418 q -7.33887,-3.07618 -13.22754,-3.07618 -4.92188,0 -7.47071,1.58204 -2.54882,1.53808 -2.54882,4.26269 0,2.63672 2.19726,4.39453 2.19727,1.71387 10.23926,4.79004 6.02051,2.24121 8.87695,4.17481 2.90039,1.93359 4.2627,4.35058 1.3623,2.41699 1.3623,5.80078 z" />
      </g>
    </a>
    <path
       style="fill:none;fill-rule:evenodd;stroke:#000000;stroke-width:8;stroke-linecap:butt;stroke-linejoin:miter;stroke-opacity:1;stroke-miterlimit:1;stroke-dasharray:none"
       d="m 395.10153,192.66678 c 45,0 45,0 45,0 l 0,0 0,0"
       id="path4180-19"
       inkscape:connector-curvature="0" />
    <path
       style="fill:none;fill-rule:evenodd;stroke:#000000;stroke-width:8;stroke-linecap:butt;stroke-linejoin:miter;stroke-miterlimit:1;stroke-dasharray:none;stroke-opacity:1"
       d="m 395.05077,172.96881 c 45,0 45,0 45,0 l 0,0 0,0"
       id="path4180-19-3"
       inkscape:connector-curvature="0" />
    <path
       style="fill:none;fill-rule:evenodd;stroke:#000000;stroke-width:8;stroke-linecap:butt;stroke-linejoin:miter;stroke-miterlimit:1;stroke-dasharray:none;stroke-opacity:1"
       d="m 394.89975,212.31527 c 45,0 45,0 45,0 l 0,0 0,0"
       id="path4180-19-0"
       inkscape:connector-curvature="0" />
  </g>
</svg>
